<?xml version="1.0" encoding="iso-8859-1"?>
<!-- Generator: Adobe Illustrator 22.1.0, SVG Export Plug-In . SVG Version: 6.00 Build 0)  -->
<svg version="1.1" id="Layer_1" xmlns="http://www.w3.org/2000/svg" xmlns:xlink="http://www.w3.org/1999/xlink" x="0px" y="0px"
	 viewBox="0 0 16 15" style="enable-background:new 0 0 16 15;" xml:space="preserve">
<path style="fill:#FFFFFF;" d="M15.536,8.243c0.024-0.024,0.047-0.05,0.069-0.077c0.01-0.012,0.019-0.025,0.028-0.038
	c0.011-0.015,0.023-0.029,0.033-0.045c0.01-0.015,0.019-0.031,0.028-0.046c0.008-0.014,0.017-0.028,0.025-0.042
	c0.008-0.016,0.016-0.032,0.023-0.048c0.007-0.015,0.015-0.03,0.021-0.045c0.006-0.016,0.012-0.031,0.017-0.047
	c0.006-0.017,0.012-0.033,0.017-0.05c0.005-0.016,0.008-0.032,0.012-0.048c0.004-0.017,0.009-0.034,0.013-0.052
	c0.004-0.018,0.006-0.037,0.008-0.055c0.002-0.015,0.005-0.031,0.007-0.046c0.003-0.034,0.005-0.068,0.005-0.102
	c0-0.001,0-0.001,0-0.002c0,0,0-0.001,0-0.001c0-0.034-0.002-0.068-0.005-0.102c-0.002-0.016-0.004-0.031-0.007-0.046
	c-0.003-0.018-0.005-0.037-0.008-0.055c-0.003-0.018-0.008-0.035-0.013-0.052c-0.004-0.016-0.008-0.032-0.012-0.048
	c-0.005-0.017-0.011-0.033-0.017-0.049c-0.006-0.016-0.011-0.032-0.017-0.048c-0.006-0.015-0.014-0.03-0.021-0.045
	c-0.008-0.016-0.015-0.032-0.023-0.048c-0.008-0.014-0.016-0.028-0.025-0.042c-0.009-0.016-0.018-0.031-0.028-0.046
	c-0.01-0.015-0.022-0.03-0.033-0.044c-0.01-0.013-0.018-0.026-0.029-0.038c-0.021-0.026-0.043-0.05-0.067-0.074
	c-0.001-0.001-0.002-0.002-0.003-0.003L9.903,1.125c-0.41-0.41-1.075-0.41-1.485,0c-0.41,0.41-0.41,1.075,0,1.485l3.84,3.84
	l-10.609,0c-0.58,0-1.05,0.47-1.05,1.05c0,0.29,0.118,0.553,0.308,0.743c0.19,0.19,0.453,0.308,0.743,0.308l10.608,0l-3.84,3.84
	c-0.41,0.41-0.41,1.075,0,1.485s1.075,0.41,1.485,0L15.536,8.243L15.536,8.243z"/>
</svg>
