<?xml version="1.0" encoding="iso-8859-1"?>
<!-- Generator: Adobe Illustrator 22.1.0, SVG Export Plug-In . SVG Version: 6.00 Build 0)  -->
<svg version="1.1" id="Layer_1" xmlns="http://www.w3.org/2000/svg" xmlns:xlink="http://www.w3.org/1999/xlink" x="0px" y="0px"
	 viewBox="0 0 41 28" style="enable-background:new 0 0 41 28;" xml:space="preserve">
<path style="fill:#FFFFFF;" d="M39.29,16.747H1.535v-1.285c0-2.658,1.929-3.057,3.026-3.057h0.833h3.026h9.647h4.955h9.647h2.763
	h0.833c1.14,0,3.026,0.399,3.026,3.057V16.747z M39.29,20.69h-2.061h-1.491H5.131H3.64H1.535v-2.348H39.29V20.69z M35.738,26.405
	h1.491V22.24h-1.491V26.405z M3.64,26.405h1.491V22.24H3.64V26.405z M8.463,10.81h9.647V7H8.463V10.81z M23.021,10.81h9.647V7
	h-9.647V10.81z M5.35,4.12h0.088c0-2.082,1.359-2.525,2.499-2.525h24.995c1.14,0,2.499,0.443,2.499,2.525v6.69h-1.184V7
	c0-0.886-0.702-1.595-1.579-1.595h-9.647c-0.877,0-1.579,0.709-1.579,1.595v3.81h-1.842V7c0-0.886-0.702-1.595-1.579-1.595H8.375
	C7.498,5.405,6.797,6.114,6.797,7v3.81H5.35V4.12z M37.01,10.854V10.81V4.12c0-3.013-2.105-4.12-4.078-4.12H7.937
	C5.964,0,3.859,1.063,3.859,4.12v6.69v0.044C1.886,11.076,0,12.405,0,15.462v5.228c0,0.886,0.702,1.595,1.579,1.595h0.526v4.12
	C2.105,27.291,2.806,28,3.683,28h1.491c0.877,0,1.579-0.709,1.579-1.595V22.24h27.494v4.165c0,0.886,0.702,1.595,1.579,1.595h1.491
	c0.877,0,1.579-0.709,1.579-1.595V22.24h0.526c0.877,0,1.579-0.709,1.579-1.595v-5.184C40.869,12.405,38.983,11.076,37.01,10.854z"
	/>
</svg>
