<?xml version="1.0" encoding="utf-8"?>
<!-- Generator: Adobe Illustrator 22.1.0, SVG Export Plug-In . SVG Version: 6.00 Build 0)  -->
<svg version="1.1" id="Layer_1" xmlns="http://www.w3.org/2000/svg" xmlns:xlink="http://www.w3.org/1999/xlink" x="0px" y="0px"
	 viewBox="0 0 35 36" style="enable-background:new 0 0 35 36;" xml:space="preserve">
<style type="text/css">
	.st0{fill:#FFFFFF;}
	.st1{enable-background:new    ;}
</style>
<g>
	<path class="st0" d="M27.6,26.1c0-0.1,0-0.1,0-0.2c0-5.6-4.6-10.1-10.1-10.1S7.3,20.3,7.3,25.9c0,0.1,0,0.1,0,0.2H2.1V10.7h30.7
		v15.4H27.6z M17.5,33.9c-4.4,0-8-3.6-8-8s3.6-8,8-8s8,3.6,8,8C25.5,30.3,21.9,33.9,17.5,33.9z M8.3,4.2v1c0,0.6,0.5,1.1,1.1,1.1
		c0.6,0,1.1-0.5,1.1-1.1v-1h6v1c0,0.6,0.5,1.1,1.1,1.1c0.6,0,1.1-0.5,1.1-1.1v-1h6.2v1c0,0.6,0.5,1.1,1.1,1.1c0.6,0,1.1-0.5,1.1-1.1
		v-1h5.9v4.3H2.1V4.2H8.3z M33.9,2.1h-7v-1c0-0.6-0.5-1.1-1.1-1.1c-0.6,0-1.1,0.5-1.1,1.1v1h-6.2v-1c0-0.6-0.5-1.1-1.1-1.1
		c-0.6,0-1.1,0.5-1.1,1.1v1h-6v-1C10.5,0.5,10,0,9.4,0C8.8,0,8.3,0.5,8.3,1.1v1H1.1C0.5,2.1,0,2.6,0,3.2v24c0,0.6,0.5,1.1,1.1,1.1
		h6.6c1,4.5,5.1,7.8,9.9,7.8c4.8,0,8.8-3.3,9.9-7.8h6.5c0.6,0,1.1-0.5,1.1-1.1v-24C35,2.6,34.5,2.1,33.9,2.1z"/>
	<g class="st1">
		<path class="st0" d="M20.6,27.6c0,1.5-1.2,2.5-3.1,2.5c-1.9,0-2.9-1-3.1-2.6h1.9c0.1,0.6,0.4,0.9,1.3,0.9c0.7,0,1.1-0.4,1.1-0.9
			c0-0.6-0.5-0.9-1.2-0.9h-0.7v-1.5h0.7c0.6,0,1.1-0.4,1.1-0.9c0-0.6-0.4-0.9-1-0.9s-1,0.4-1.1,0.9h-1.9c0.1-1.5,1.2-2.6,2.9-2.6
			s2.8,1,2.8,2.5c0,0.8-0.3,1.3-0.8,1.7C20.2,26.2,20.6,26.8,20.6,27.6z"/>
	</g>
</g>
</svg>
