<?xml version="1.0" encoding="iso-8859-1"?>
<!-- Generator: Adobe Illustrator 22.1.0, SVG Export Plug-In . SVG Version: 6.00 Build 0)  -->
<svg version="1.1" id="Layer_1" xmlns="http://www.w3.org/2000/svg" xmlns:xlink="http://www.w3.org/1999/xlink" x="0px" y="0px"
	 viewBox="0 0 35 36" style="enable-background:new 0 0 35 36;" xml:space="preserve">
<g>
	<path style="fill:#FFFFFF;" d="M27.638,26.086c0.001-0.059,0.004-0.118,0.004-0.177c0-5.564-4.552-10.091-10.147-10.091
		c-5.595,0-10.147,4.527-10.147,10.091c0,0.059,0.004,0.118,0.004,0.177H2.134V10.692h30.723v15.394H27.638z M17.495,33.878
		c-4.418,0-8.013-3.575-8.013-7.968s3.595-7.968,8.013-7.968c4.418,0,8.013,3.574,8.013,7.968
		C25.509,30.303,21.914,33.878,17.495,33.878z M8.325,4.23v0.959c0,0.586,0.478,1.061,1.067,1.061c0.589,0,1.067-0.475,1.067-1.061
		V4.23h5.97v0.959c0,0.586,0.478,1.061,1.067,1.061c0.589,0,1.067-0.475,1.067-1.061V4.23h6.234v0.959
		c0,0.586,0.478,1.061,1.067,1.061c0.589,0,1.067-0.475,1.067-1.061V4.23h5.925v4.34H2.134V4.23H8.325z M33.924,2.108h-6.993V1.061
		C26.931,0.475,26.454,0,25.864,0c-0.589,0-1.067,0.475-1.067,1.061v1.047h-6.234V1.061C18.563,0.475,18.085,0,17.495,0
		c-0.589,0-1.067,0.475-1.067,1.061v1.047h-5.97V1.061C10.459,0.475,9.981,0,9.392,0C8.802,0,8.325,0.475,8.325,1.061v1.047H1.067
		C0.478,2.108,0,2.583,0,3.169v23.978c0,0.586,0.478,1.061,1.067,1.061h6.55C8.667,32.668,12.696,36,17.495,36
		c4.8,0,8.829-3.332,9.879-7.791h6.55c0.589,0,1.067-0.475,1.067-1.061V3.169C34.991,2.583,34.513,2.108,33.924,2.108z"/>
	<path style="fill:#FFFFFF;" d="M18.563,26.177v-5.134c0-0.586-0.478-1.061-1.067-1.061c-0.589,0-1.067,0.475-1.067,1.061v5.573
		c0,0.281,0.112,0.551,0.313,0.75l2.453,2.439c0.208,0.207,0.481,0.311,0.755,0.311c0.273,0,0.546-0.104,0.755-0.311
		c0.417-0.414,0.417-1.086,0-1.501L18.563,26.177z"/>
</g>
</svg>
