<svg id="Layer_1" xmlns="http://www.w3.org/2000/svg" viewBox="0 0 37 37"><style>.st0{fill:#000}</style><path class="st0" d="M33.7 8.8c-.2-.3-.6-.4-1-.2l-3.4 1.9c-.3.2-.4.6-.3.9.2.3.6.4 1 .2l3.4-1.9c.4-.2.5-.6.3-.9m-.2 16.9l-3.4-1.9c-.3-.2-.8-.1-1 .2-.2.3-.1.7.3.9l3.4 1.9c.3.2.8.1 1-.2.1-.3 0-.8-.3-.9M18.7 31c-.4 0-.8.2-.8.6v3.6c0 .3.3.6.7.7s.8-.2.8-.6v-3.6c.1-.4-.2-.7-.7-.7M7.1 10.4L3.7 8.5c-.3-.2-.7-.1-.9.3-.2.3-.1.7.2.9l3.4 1.9c.3.2.8.1 1-.2s.1-.8-.3-1M18.7-.4c-.4 0-.8.2-.9.6v3.6c0 .3.4.6.8.6s.8-.3.8-.6V.3c.1-.4-.2-.7-.7-.7m-6.5 6.2l-1.9-3.4c-.2-.4-.6-.5-.9-.3-.3.2-.4.6-.2 1L11 6.5c.2.3.6.4.9.3.4-.3.5-.7.3-1m5.9 5.8c-.1 0-.1 0 0 0-3.2 0-5.8 2.6-5.8 5.8 0 .4.3.6.6.6.4 0 .6-.3.6-.6 0-2.5 2-4.5 4.4-4.5.4 0 .7-.2.7-.6.1-.3-.2-.6-.5-.7M36.2 18c0-.4-.3-.7-.6-.7h-3.5c-.3 0-.6.3-.7.7 0 .4.2.8.6.8h3.6c.3 0 .6-.4.6-.8m-31.7-.7s-.1 0 0 0H.9c-.3 0-.6.4-.6.9 0 .4.3.7.6.7h3.5c.3 0 .6-.3.7-.7 0-.5-.2-.9-.6-.9" transform="translate(.27 .833)"/><path class="st0" d="M23.7 23.2c-3.2 3.3-8.5 3.3-11.7 0-1.6-1.6-2.4-3.7-2.4-5.9s.9-4.3 2.4-5.9c3.2-3.3 8.5-3.3 11.7 0s3.2 8.5 0 11.8M17.9 7.6c-5.3 0-9.6 4.3-9.6 9.6 0 2.6 1 5 2.8 6.8 1.8 1.8 4.2 2.8 6.8 2.8 5.3 0 9.6-4.3 9.6-9.6-.1-5.3-4.4-9.6-9.6-9.6m9.4 24.7l-1.9-3.4c-.2-.3-.6-.4-.9-.3-.3.2-.4.6-.2 1l1.9 3.4c.2.3.6.4.9.3.3-.3.4-.7.2-1m-.2-30.2c-.3-.2-.7-.1-.9.3l-1.9 3.4c-.2.3-.1.8.2 1 .3.2.7.1.9-.3l1.9-3.4c.2-.4.1-.8-.2-1M11.9 28.6c-.3-.2-.7-.1-.9.3l-1.9 3.4c-.2.3-.1.8.2 1s.7.1.9-.3l1.9-3.4c.3-.4.2-.8-.2-1M7.4 24c-.2-.3-.6-.4-1-.2L3 25.7c-.3.2-.4.6-.3.9.2.3.6.4 1 .2l3.4-1.9c.4-.2.5-.6.3-.9" transform="translate(.27 .833)"/></svg>