<svg id="Layer_1" xmlns="http://www.w3.org/2000/svg" viewBox="0 0 37 37"><style>.st0{fill:#000}</style><g id="surface1"><path class="st0" d="M27.7 30.8c-.3.3-.3.7 0 1 .1.1.3.2.5.2s.4-.1.5-.2c.3-.3.3-.7 0-1-.3-.3-.8-.3-1 0z"/><path class="st0" d="M33 20.1c-.2-3.7-1.8-7.1-4.4-9.7C27.2 9 25.7 8 23.9 7.2c-.3-.1-.6-.1-.8.1-.1.3-.2.6-.1.8 2.3 5.2 1.1 11.2-2.9 15.2s-10 5.1-15.2 2.9c-.3-.1-.6-.1-.8.1-.1.3-.2.6-.1.8.8 1.7 1.8 3.3 3.2 4.7 2.9 2.9 6.8 4.4 10.7 4.4 3 0 5.9-.9 8.5-2.6.3-.2.4-.6.2-1-.2-.3-.6-.4-1-.2-5.5 3.7-12.8 3-17.5-1.6-.8-.8-1.5-1.7-2.1-2.7 2.3.7 4.7.8 7.1.4 3-.6 5.8-2 8-4.2s3.6-4.9 4.2-8c.4-2.4.3-4.8-.4-7 1 .6 1.9 1.3 2.7 2.1 4.8 4.8 5.4 12.6 1.2 18-.2.3-.2.7.1 1 .3.2.7.2 1-.1 2.3-2.9 3.4-6.5 3.1-10.2zM4.3 8.1L8.1 10l1.9 3.8c.1.2.4.4.6.4.3 0 .5-.1.6-.4l1.9-3.8 3.8-1.9c.2-.1.4-.4.4-.6s.1-.5-.2-.6L13.3 5l-1.9-3.8c-.1-.2-.4-.4-.6-.4-.3 0-.5.1-.6.4L8.2 5 4.3 6.9c-.2.1-.4.4-.4.6 0 .3.2.5.4.6zm4.7-2l.3-.3L10.7 3l1.4 2.8.3.3 2.8 1.4-2.8 1.4-.3.3-1.4 2.8-1.4-2.8-.3-.3-2.8-1.4L9 6.1z"/><path class="st0" d="M16.8 13.6c-.3 0-.5.1-.6.4l-1 1.9-1.9 1c-.2.1-.4.4-.4.6 0 .3.1.5.4.6l1.9 1 1 1.9c.1.2.4.4.6.4s.5-.1.6-.4l1-1.9 1.9-1c.2-.1.4-.4.4-.6 0-.3-.1-.5-.4-.6l-1.9-1-1-1.9c-.1-.3-.3-.4-.6-.4zm1.7 3.9l-.9.4-.3.3-.4.9-.4-.9-.3-.3-.9-.4.7-.5.3-.3.4-.9.4.9.3.3 1.1.5zM4.3 22.1l1.7.8.8 1.6c.1.2.4.4.6.4.3 0 .5-.1.6-.4l.8-1.6 1.6-.8c.2-.1.4-.4.4-.6s-.1-.5-.4-.6L8.8 20 8 18.4c-.1-.3-.3-.4-.6-.4s-.5.1-.6.4L6 20l-1.6.8c-.2.1-.4.4-.4.6s.1.5.3.7zm2.5-1c.1 0 .2-.1.3-.3l.3-.6.3.6c.1.2.2.3.3.3l.6.3-.6.3-.3.3-.3.6-.3-.6-.3-.3-.6-.3.6-.3zM5.8 3.6c.1.1.3.2.5.2s.4-.1.5-.2c.3-.3.3-.7 0-1-.3-.3-.7-.3-1 0s-.3.7 0 1zM5.8 11.5c-.3.3-.3.7 0 1 .1.1.3.2.5.2s.4-.1.5-.2c.3-.3.3-.7 0-1-.3-.3-.7-.3-1 0zM15.2 12.7c.2 0 .4-.1.5-.2.3-.3.3-.7 0-1-.3-.3-.7-.3-1 0-.3.3-.3.7 0 1 .1.1.3.2.5.2zM15.2 3.8c.2 0 .4-.1.5-.2.3-.3.3-.7 0-1-.3-.3-.7-.3-1 0-.3.3-.3.7 0 1 .1.1.3.2.5.2z"/></g></svg>