<?xml version="1.0" encoding="iso-8859-1"?>
<!-- Generator: Adobe Illustrator 22.1.0, SVG Export Plug-In . SVG Version: 6.00 Build 0)  -->
<svg version="1.1" id="Layer_1" xmlns="http://www.w3.org/2000/svg" xmlns:xlink="http://www.w3.org/1999/xlink" x="0px" y="0px"
	 viewBox="0 0 33 33" style="enable-background:new 0 0 33 33;" xml:space="preserve">
<g>
	<circle style="fill:#F7D8BA;" cx="16.5" cy="16.5" r="16.5"/>
	<g transform="translate(8 11)">
		<path style="fill:#231F20;" d="M15.062,4.361h-0.897c0.058-0.348,0.096-0.704,0.096-1.069V1.557h0.802
			c0.767,0,1.392,0.629,1.392,1.402C16.454,3.732,15.829,4.361,15.062,4.361 M15.062,0h-5.034v0.002H1.546v3.29
			c0,3.538,2.846,6.405,6.357,6.405c2.581,0,4.798-1.553,5.794-3.779h1.366C16.682,5.918,18,4.591,18,2.959
			C18,1.327,16.682,0,15.062,0"/>
		<g transform="translate(0 10.385)">
			<defs>
				<filter id="Adobe_OpacityMaskFilter" filterUnits="userSpaceOnUse" x="0" y="0.033" width="15.806" height="2.552">
					<feColorMatrix  type="matrix" values="1 0 0 0 0  0 1 0 0 0  0 0 1 0 0  0 0 0 1 0"/>
				</filter>
			</defs>
			<mask maskUnits="userSpaceOnUse" x="0" y="0.033" width="15.806" height="2.552" id="coffee-b_1_">
				<g style="filter:url(#Adobe_OpacityMaskFilter);">
					<polygon id="coffee-a_1_" style="fill:#FFFFFF;" points="0,0.033 15.806,0.033 15.806,2.586 0,2.586 					"/>
				</g>
			</mask>
			<path style="mask:url(#coffee-b_1_);fill:#231F20;" d="M1.224,2.054c0.178,0.294,0.599,0.532,0.94,0.532h11.478
				c0.342,0,0.762-0.238,0.94-0.532l1.224-2.02H0L1.224,2.054z"/>
		</g>
	</g>
</g>
</svg>
