<?xml version="1.0" encoding="utf-8"?>
<!-- Generator: Adobe Illustrator 23.0.0, SVG Export Plug-In . SVG Version: 6.00 Build 0)  -->
<svg version="1.1" id="Layer_1" xmlns="http://www.w3.org/2000/svg" xmlns:xlink="http://www.w3.org/1999/xlink" x="0px" y="0px"
	 viewBox="0 0 24 24" style="enable-background:new 0 0 24 24;" xml:space="preserve">
<style type="text/css">
	.st0{filter:url(#Adobe_OpacityMaskFilter);}
	.st1{fill-rule:evenodd;clip-rule:evenodd;fill:#FFFFFF;}
	.st2{mask:url(#mask-2_1_);fill-rule:evenodd;clip-rule:evenodd;fill:#231F20;}
</style>
<title>facebook</title>
<desc>Created with Sketch.</desc>
<defs>
	<filter id="Adobe_OpacityMaskFilter" filterUnits="userSpaceOnUse" x="0.1" y="0.1" width="23.8" height="23.8">
		<feColorMatrix  type="matrix" values="1 0 0 0 0  0 1 0 0 0  0 0 1 0 0  0 0 0 1 0"/>
	</filter>
</defs>
<mask maskUnits="userSpaceOnUse" x="0.1" y="0.1" width="23.8" height="23.8" id="mask-2_1_">
	<g class="st0">
		<polygon id="path-1_1_" class="st1" points="0.1,23.9 23.9,23.9 23.9,0.1 0.1,0.1 		"/>
	</g>
</mask>
<path id="Fill-1" class="st2" d="M14.8,8.3H13c-0.2,0-0.4,0.3-0.4,0.7v1.3h2.2v1.8h-2.2v5.5h-2.1v-5.5H8.5v-1.8h1.9V9.2
	c0-1.6,1.1-2.8,2.6-2.8h1.8V8.3z M12,0.1C5.4,0.1,0.1,5.4,0.1,12c0,6.6,5.3,11.9,11.9,11.9S23.9,18.6,23.9,12
	C23.9,5.4,18.6,0.1,12,0.1z"/>
</svg>
