<?xml version="1.0" encoding="iso-8859-1"?>
<!-- Generator: Adobe Illustrator 22.1.0, SVG Export Plug-In . SVG Version: 6.00 Build 0)  -->
<svg version="1.1" id="Layer_1" xmlns="http://www.w3.org/2000/svg" xmlns:xlink="http://www.w3.org/1999/xlink" x="0px" y="0px"
	 viewBox="0 0 33 33" style="enable-background:new 0 0 33 33;" xml:space="preserve">
<g>
	<circle style="fill:#B8E3DE;" cx="16.5" cy="16.5" r="16.5"/>
	<path style="fill:#231F20;" d="M24.564,22.454l-6.648-6.666L10.15,8H9.543L9.419,8.316c-0.327,0.834-0.467,1.686-0.404,2.465
		c0.072,0.888,0.408,1.657,0.973,2.224l6.063,6.08l0.8-0.802l5.605,6.285c0.558,0.559,1.517,0.592,2.108,0
		C25.145,23.985,25.145,23.037,24.564,22.454 M12.976,18l-4.558,4.56c-0.558,0.558-0.558,1.466,0,2.024
		c0.53,0.53,1.447,0.577,2.023,0L15,20.024L12.976,18z M24.284,10.864l-2.745,2.745l-0.716-0.716l2.745-2.745l-0.716-0.716
		l-2.745,2.745l-0.716-0.716l2.745-2.745L21.42,8l-3.58,3.58c-0.438,0.438-0.699,1.019-0.736,1.637
		c-0.009,0.157-0.045,0.311-0.104,0.457L19.326,16c0.146-0.059,0.301-0.094,0.457-0.104c0.618-0.037,1.2-0.298,1.637-0.736L25,11.58
		L24.284,10.864z"/>
</g>
</svg>
