<?xml version="1.0" encoding="utf-8"?>
<!-- Generator: Adobe Illustrator 23.0.0, SVG Export Plug-In . SVG Version: 6.00 Build 0)  -->
<svg version="1.1" id="Layer_1" xmlns="http://www.w3.org/2000/svg" xmlns:xlink="http://www.w3.org/1999/xlink" x="0px" y="0px"
	 viewBox="0 0 24 25" style="enable-background:new 0 0 24 25;" xml:space="preserve">
<style type="text/css">
	.st0{filter:url(#Adobe_OpacityMaskFilter);}
	.st1{fill-rule:evenodd;clip-rule:evenodd;fill:#FFFFFF;}
	.st2{mask:url(#mask-2_1_);fill-rule:evenodd;clip-rule:evenodd;fill:#231F20;}
	.st3{fill-rule:evenodd;clip-rule:evenodd;fill:#231F20;}
</style>
<title>insta</title>
<desc>Created with Sketch.</desc>
<g>
	<defs>
		<filter id="Adobe_OpacityMaskFilter" filterUnits="userSpaceOnUse" x="0.1" y="0.5" width="23.8" height="24">
			<feColorMatrix  type="matrix" values="1 0 0 0 0  0 1 0 0 0  0 0 1 0 0  0 0 0 1 0"/>
		</filter>
	</defs>
	<mask maskUnits="userSpaceOnUse" x="0.1" y="0.5" width="23.8" height="24" id="mask-2_1_">
		<g class="st0">
			<polygon id="path-1_1_" class="st1" points="0.1,24.5 0.1,0.5 23.9,0.5 23.9,24.5 			"/>
		</g>
	</mask>
	<path id="Fill-1" class="st2" d="M12,0.5c-3.2,0-3.6,0-4.9,0.1C5.8,0.6,5,0.8,4.2,1.1C3.4,1.4,2.8,1.8,2.1,2.5
		C1.4,3.2,1,3.9,0.7,4.6C0.4,5.4,0.2,6.3,0.2,7.6c-0.1,1.3-0.1,1.7-0.1,4.9c0,3.3,0,3.7,0.1,4.9c0.1,1.3,0.3,2.1,0.6,2.9
		c0.3,0.8,0.7,1.5,1.4,2.1c0.7,0.7,1.3,1.1,2.1,1.4c0.8,0.3,1.6,0.5,2.9,0.6c1.3,0.1,1.7,0.1,4.9,0.1s3.6,0,4.9-0.1
		c1.3-0.1,2.1-0.3,2.9-0.6c0.8-0.3,1.4-0.7,2.1-1.4c0.7-0.7,1.1-1.3,1.4-2.1c0.3-0.8,0.5-1.6,0.6-2.9c0.1-1.3,0.1-1.7,0.1-4.9
		c0-3.3,0-3.7-0.1-4.9c-0.1-1.3-0.3-2.1-0.6-2.9c-0.3-0.8-0.7-1.5-1.4-2.1c-0.7-0.7-1.3-1.1-2.1-1.4c-0.8-0.3-1.6-0.5-2.9-0.6
		C15.6,0.5,15.2,0.5,12,0.5 M12,2.7c3.2,0,3.6,0,4.8,0.1C18,2.8,18.6,3,19,3.1c0.6,0.2,1,0.5,1.4,0.9c0.4,0.4,0.7,0.8,0.9,1.4
		c0.2,0.4,0.4,1.1,0.4,2.2c0.1,1.3,0.1,1.6,0.1,4.8c0,3.2,0,3.6-0.1,4.8c-0.1,1.2-0.2,1.8-0.4,2.2c-0.2,0.6-0.5,1-0.9,1.4
		c-0.4,0.4-0.8,0.7-1.4,0.9c-0.4,0.2-1,0.4-2.2,0.4c-1.3,0.1-1.6,0.1-4.8,0.1s-3.6,0-4.8-0.1C6,22.2,5.4,22,5,21.9
		c-0.6-0.2-1-0.5-1.4-0.9c-0.4-0.4-0.7-0.8-0.9-1.4c-0.2-0.4-0.4-1.1-0.4-2.2c-0.1-1.3-0.1-1.6-0.1-4.8c0-3.2,0-3.6,0.1-4.8
		c0.1-1.2,0.2-1.8,0.4-2.2c0.2-0.6,0.5-1,0.9-1.4C4,3.6,4.4,3.4,5,3.1C5.4,3,6,2.8,7.2,2.7C8.4,2.7,8.8,2.7,12,2.7"/>
	<path id="Fill-4" class="st3" d="M8,12.5c0-2.2,1.8-4,4-4s4,1.8,4,4s-1.8,4-4,4S8,14.7,8,12.5z M5.9,12.5c0,3.4,2.7,6.2,6.1,6.2
		s6.1-2.8,6.1-6.2S15.4,6.3,12,6.3S5.9,9.1,5.9,12.5z"/>
	<path id="Fill-6" class="st3" d="M19.8,6.1c0,0.8-0.6,1.4-1.4,1.4c-0.8,0-1.4-0.6-1.4-1.4s0.6-1.4,1.4-1.4
		C19.1,4.7,19.8,5.3,19.8,6.1"/>
</g>
</svg>
