<?xml version="1.0" encoding="iso-8859-1"?>
<!-- Generator: Adobe Illustrator 22.1.0, SVG Export Plug-In . SVG Version: 6.00 Build 0)  -->
<svg version="1.1" id="Layer_1" xmlns="http://www.w3.org/2000/svg" xmlns:xlink="http://www.w3.org/1999/xlink" x="0px" y="0px"
	 viewBox="0 0 35 22" style="enable-background:new 0 0 35 22;" xml:space="preserve">
<path style="fill:#F1BFB8;" d="M34.431,11.279c0.101-0.19,0.091-0.422-0.026-0.603C31.219,5.757,25.403,0.5,18.633,0.5
	c-7.394,0-12.158,3.522-13.487,9.917H1.067C0.754,10.417,0.5,10.677,0.5,11s0.254,0.583,0.567,0.583h9.308l3.802,6.711
	c0.158,0.278,0.505,0.372,0.775,0.21c0.27-0.162,0.361-0.52,0.204-0.798l-3.47-6.123h4.342l3.806,7.276
	c0.148,0.284,0.492,0.39,0.767,0.237c0.275-0.153,0.379-0.507,0.23-0.79l-3.517-6.723h4.383l2.955,5.531
	c0.151,0.283,0.495,0.386,0.77,0.231c0.274-0.155,0.375-0.51,0.223-0.792l-2.655-4.969h7.542c0.313,0,0.567-0.261,0.567-0.583
	s-0.254-0.583-0.567-0.583h-7.542l2.655-4.969c0.151-0.281,0.051-0.636-0.223-0.792c-0.274-0.156-0.619-0.053-0.77,0.23
	l-2.955,5.531h-4.383l3.517-6.723c0.149-0.283,0.045-0.638-0.23-0.79c-0.275-0.153-0.619-0.046-0.767,0.237l-3.806,7.277h-4.342
	l3.47-6.123c0.157-0.278,0.066-0.635-0.204-0.798c-0.27-0.162-0.617-0.068-0.775,0.21l-3.802,6.711H6.306
	c1.286-5.723,5.527-8.75,12.328-8.75c6.19,0,11.575,4.782,14.635,9.364c-3.254,5.917-8.57,9.303-14.635,9.303
	c-6.116,0-10.229-2.49-11.895-7.199c-0.107-0.303-0.432-0.459-0.727-0.349c-0.294,0.11-0.447,0.446-0.338,0.748
	c1.843,5.212,6.324,7.967,12.96,7.967C25.231,21.5,30.989,17.775,34.431,11.279"/>
</svg>
