<svg xmlns="http://www.w3.org/2000/svg" viewBox="0 0 37 37"><path d="M30.1 16.2c-1.1-5.4-5.9-9.5-11.6-9.5-5.6 0-10.5 4-11.6 9.5-3.7.3-6.5 3.3-6.5 7.1 0 3.9 3.2 7.1 7.1 7.1h22c3.9 0 7.1-3.2 7.1-7.1 0-3.8-2.9-6.9-6.5-7.1zm-.6 12.5h-22c-3 0-5.5-2.5-5.5-5.5s2.5-5.5 5.5-5.5h.1c.4 0 .8.1 1.3.2H9c1.4.4 2.6 1.3 3.3 2.6.2.4.7.5 1.1.3.4-.2.5-.7.3-1.1-.9-1.6-2.4-2.7-4.1-3.3h-.1c-.3-.1-.6-.1-.8-.2 1.1-4.6 5.2-7.9 10-7.9s8.9 3.4 10 7.9c-.3 0-.6.1-.8.2h-.1c-1.7.5-3.2 1.7-4.1 3.3-.2.4-.1.9.3 1.1.4.2.9.1 1.1-.3.7-1.2 1.9-2.2 3.3-2.6h.1c.4-.1.8-.2 1.3-.2h.1c3 0 5.5 2.5 5.5 5.5s-2.8 5.5-5.9 5.5z" fill="#000"/></svg>