<?xml version="1.0" encoding="iso-8859-1"?>
<!-- Generator: Adobe Illustrator 22.1.0, SVG Export Plug-In . SVG Version: 6.00 Build 0)  -->
<svg version="1.1" id="Layer_1" xmlns="http://www.w3.org/2000/svg" xmlns:xlink="http://www.w3.org/1999/xlink" x="0px" y="0px"
	 viewBox="0 0 94 94" style="enable-background:new 0 0 94 94;" xml:space="preserve">
<g>
	<path style="fill:#FFFFFF;" d="M37.419,67.208v-40.87l29.974,20.435L37.419,67.208z M71.038,45.485l-34.3-23.387
		c-0.479-0.324-1.096-0.36-1.607-0.09c-0.51,0.27-0.829,0.8-0.829,1.378V70.16c0,0.578,0.32,1.108,0.831,1.378
		c0.228,0.122,0.479,0.181,0.728,0.181c0.307,0,0.614-0.092,0.878-0.271l34.3-23.387c0.426-0.29,0.681-0.772,0.681-1.288
		C71.719,46.257,71.463,45.775,71.038,45.485z"/>
	<path style="fill:#FFFFFF;" d="M46.773,90.428c-24.071,0-43.655-19.584-43.655-43.655S22.702,3.118,46.773,3.118
		s43.655,19.584,43.655,43.655S70.844,90.428,46.773,90.428 M46.773,0C20.983,0,0,20.983,0,46.773
		c0,25.791,20.983,46.773,46.773,46.773s46.773-20.982,46.773-46.773C93.546,20.983,72.564,0,46.773,0"/>
</g>
</svg>
