<svg id="Layer_1" xmlns="http://www.w3.org/2000/svg" viewBox="0 0 37 37"><style>.st0{fill:#f7d8ba}</style><path class="st0" d="M30.1 11.5C29 6 24.1 2 18.5 2S8 6 6.9 11.5c-3.6.3-6.5 3.3-6.5 7 0 3.9 3.2 7.1 7.1 7.1h1.6c.4 0 .8-.4.8-.8s-.4-.8-.8-.8H7.5c-3 0-5.5-2.5-5.5-5.5S4.5 13 7.5 13h.1c.4 0 .8.1 1.3.2H9c1.4.4 2.6 1.3 3.3 2.6.2.4.7.5 1.1.3.4-.2.5-.7.3-1.1-.9-1.6-2.4-2.7-4.1-3.3h-.1c-.3-.1-.6-.1-.8-.2 1.1-4.6 5.2-7.9 10-7.9s8.9 3.4 10 7.9c-.3 0-.6.1-.8.2h-.1c-1.7.5-3.2 1.7-4.1 3.3-.2.4-.1.9.3 1.1.4.2.9.1 1.1-.3.7-1.2 1.9-2.2 3.3-2.6h.1c.4-.1.8-.2 1.3-.2h.1c3 0 5.5 2.5 5.5 5.5S32.5 24 29.5 24h-1.6c-.4 0-.8.4-.8.8s.4.8.8.8h1.6c3.9 0 7.1-3.2 7.1-7.1 0-3.7-2.9-6.8-6.5-7z"/><path class="st0" d="M20.3 20.9c-.4-.1-.9.1-1 .5L14.6 34c-.2.4.1.9.5 1h.3c.3 0 .6-.2.7-.5l4.7-12.6c.2-.4 0-.8-.5-1zM25 20.9c-.4-.1-.9.1-1 .5l-3.1 9.4c-.1.4.1.9.5 1h.2c.3 0 .6-.2.7-.5l3.1-9.4c.3-.4.1-.9-.4-1zM15.7 20.9c-.4-.2-.9 0-1 .4l-3.9 9.4c-.2.4 0 .9.4 1 .1 0 .2.1.3.1.3 0 .6-.2.7-.5l3.9-9.4c.1-.4 0-.8-.4-1z"/></svg>