<?xml version="1.0" encoding="iso-8859-1"?>
<!-- Generator: Adobe Illustrator 22.1.0, SVG Export Plug-In . SVG Version: 6.00 Build 0)  -->
<svg version="1.1" id="Layer_1" xmlns="http://www.w3.org/2000/svg" xmlns:xlink="http://www.w3.org/1999/xlink" x="0px" y="0px"
	 viewBox="0 0 37 37" style="enable-background:new 0 0 37 37;" xml:space="preserve">
<g transform="translate(.27 .833)">
	<path style="fill:#000000;" d="M33.419,9.165c-0.193-0.318-0.619-0.426-0.951-0.241l-3.396,1.88
		c-0.332,0.185-0.445,0.593-0.252,0.911c0.193,0.318,0.619,0.426,0.951,0.241l3.396-1.88C33.499,9.89,33.612,9.483,33.419,9.165
		 M33.167,26.061l-3.396-1.88c-0.332-0.185-0.758-0.077-0.951,0.241c-0.193,0.318-0.08,0.726,0.252,0.91l3.396,1.88
		c0.332,0.185,0.758,0.077,0.951-0.241C33.612,26.654,33.499,26.246,33.167,26.061 M18.422,31.356
		c-0.432-0.025-0.808,0.23-0.84,0.569c-0.003,0.03-0.003,0.061,0,0.091v3.458c-0.032,0.34,0.292,0.635,0.724,0.66
		c0.432,0.025,0.808-0.23,0.84-0.569c0.003-0.03,0.003-0.061,0-0.091v-3.458C19.179,31.677,18.854,31.381,18.422,31.356
		 M6.835,10.804l-3.396-1.88C3.107,8.739,2.681,8.847,2.488,9.165C2.295,9.483,2.408,9.89,2.74,10.075l3.396,1.88
		c0.332,0.185,0.758,0.077,0.951-0.241C7.28,11.396,7.167,10.988,6.835,10.804 M18.411,0.002c-0.44-0.026-0.822,0.234-0.855,0.579
		c-0.003,0.031-0.003,0.062,0,0.093v3.52c0.002,0.344,0.356,0.622,0.794,0.624c0.441,0,0.798-0.281,0.798-0.628V0.674
		C19.181,0.328,18.851,0.027,18.411,0.002 M11.879,6.175l-1.866-3.418C9.829,2.423,9.423,2.31,9.107,2.504
		C8.79,2.698,8.683,3.127,8.867,3.461l1.867,3.418c0.184,0.334,0.589,0.448,0.906,0.253C11.956,6.938,12.063,6.51,11.879,6.175
		 M17.758,12.047c-0.032-0.002-0.063-0.002-0.095,0c-3.145,0-5.694,2.584-5.694,5.772c0,0.359,0.287,0.65,0.642,0.65
		c0.353-0.002,0.638-0.293,0.638-0.65c-0.002-2.469,1.971-4.473,4.407-4.475h0.007c0.353,0.027,0.661-0.242,0.687-0.6
		C18.377,12.386,18.112,12.074,17.758,12.047 M35.854,18.412c-0.023-0.37-0.267-0.665-0.573-0.692h-3.484
		c-0.342-0.031-0.64,0.279-0.665,0.692c-0.025,0.413,0.231,0.773,0.573,0.804c0.031,0.003,0.061,0.003,0.092,0h3.484
		C35.623,19.185,35.879,18.825,35.854,18.412 M4.205,17.669c-0.031-0.003-0.062-0.003-0.093,0H0.583
		c-0.346,0.033-0.607,0.418-0.581,0.86c0.023,0.397,0.27,0.712,0.581,0.741h3.529c0.347,0.033,0.648-0.299,0.674-0.741
		C4.812,18.087,4.552,17.702,4.205,17.669"/>
	<path style="fill:#000000;" d="M23.404,23.565c-3.231,3.252-8.47,3.252-11.701,0c-1.554-1.564-2.426-3.687-2.423-5.899
		c-0.003-2.209,0.869-4.328,2.423-5.888v0.011c3.231-3.252,8.47-3.252,11.701,0S26.635,20.314,23.404,23.565 M17.556,8.03
		c-5.288-0.001-9.576,4.313-9.576,9.635c0,2.557,1.009,5.009,2.806,6.816c1.793,1.809,4.229,2.825,6.768,2.821
		c5.288,0.001,9.576-4.313,9.576-9.635C27.13,12.346,22.844,8.031,17.556,8.03 M27.041,32.678c-0.001-0.001-0.001-0.002-0.002-0.003
		l-1.868-3.418c-0.184-0.334-0.589-0.448-0.905-0.253c-0.316,0.194-0.423,0.623-0.239,0.957l1.868,3.418
		c0.183,0.334,0.587,0.448,0.903,0.255C27.115,33.441,27.224,33.013,27.041,32.678 M26.8,2.504
		c-0.316-0.194-0.721-0.081-0.904,0.253l-1.867,3.416c-0.185,0.333-0.079,0.762,0.236,0.957c0.001,0,0.001,0.001,0.002,0.001
		c0.316,0.195,0.721,0.082,0.905-0.252c0.001-0.001,0.001-0.002,0.002-0.003L27.04,3.46C27.223,3.126,27.116,2.698,26.8,2.504
		 M11.64,29.004c-0.316-0.194-0.721-0.081-0.905,0.253l-1.868,3.418c-0.184,0.334-0.077,0.763,0.239,0.957
		c0.316,0.194,0.721,0.081,0.905-0.253l1.868-3.418C12.063,29.627,11.956,29.198,11.64,29.004 M7.087,24.422
		c-0.193-0.318-0.619-0.426-0.951-0.241l-3.396,1.88c-0.332,0.185-0.445,0.593-0.252,0.911c0.193,0.318,0.619,0.426,0.951,0.241
		l3.396-1.88C7.167,25.148,7.28,24.74,7.087,24.422"/>
</g>
</svg>
