<svg id="Layer_1" xmlns="http://www.w3.org/2000/svg" viewBox="0 0 37 37"><style>.st0{fill:#000}</style><path class="st0" d="M30.1 11.4C29 6 24.1 2 18.5 2S8 6 6.9 11.4c-3.7.3-6.5 3.3-6.5 7.1 0 3.9 3.2 7.1 7.1 7.1h3.1c.4 0 .8-.4.8-.8s-.4-.8-.8-.8H7.5c-3 0-5.5-2.5-5.5-5.5S4.4 13 7.4 13h.1c.4 0 .8.1 1.3.2h.1c1.4.4 2.6 1.3 3.3 2.6.2.4.7.5 1.1.3.4-.2.5-.7.3-1.1-.9-1.6-2.4-2.7-4.1-3.3h-.1c-.3-.1-.6-.1-.8-.2 1.1-4.6 5.2-7.9 10-7.9s8.9 3.4 10 7.9c-.3 0-.6.1-.8.2h-.1c-1.7.5-3.2 1.7-4.1 3.3-.2.4-.1.9.3 1.1.4.2.9.1 1.1-.3.7-1.2 1.9-2.2 3.3-2.6h.1c.4-.1.8-.2 1.3-.2h.1c3 0 5.5 2.5 5.5 5.5S32.6 24 29.5 24h-3.1c-.4 0-.8.4-.8.8s.4.8.8.8h3.1c3.9 0 7.1-3.2 7.1-7.1 0-3.7-2.9-6.8-6.5-7.1z"/><path class="st0" d="M21.6 26.4h-4.5l5.1-5.8c.3-.3.3-.8-.1-1.1-.3-.3-.8-.3-1.1.1l-6.3 7.1c-.2.2-.3.6-.1.8s.4.5.7.5H20l-4.5 5.8c-.3.3-.2.8.1 1.1.2.1.4.1.5.1.2 0 .5-.1.6-.3l5.5-7.1c.2-.2.2-.6.1-.8-.1-.3-.4-.4-.7-.4z"/></svg>